<?xml version="1.0" encoding="UTF-8" standalone="no"?>
<svg width="48px" height="45px" viewBox="0 0 48 45" version="1.1" xmlns="http://www.w3.org/2000/svg" xmlns:xlink="http://www.w3.org/1999/xlink">
    <!-- Generator: sketchtool 41 (35326) - http://www.bohemiancoding.com/sketch -->
    <title>E9915C34-6747-42E0-A1EE-8D29594B2615</title>
    <desc>Created with sketchtool.</desc>
    <defs></defs>
    <g id="Page-1" stroke="none" stroke-width="1" fill="none" fill-rule="evenodd">
        <g id="icons" transform="translate(-213.000000, -679.000000)">
            <g id="eesti_flag" transform="translate(213.000000, 678.573034)">
                <g id="title" transform="translate(0.000000, 40.525400)" fill="#34394C">
                    <polygon id="Fill-51" points="0.477 0.0996 3.041 0.0996 3.041 0.6736 1.086 0.6736 1.086 1.8186 2.754 1.8186 2.754 2.3596 1.086 2.3596 1.086 3.5376 3.041 3.5376 3.041 4.1116 0.477 4.1116"></polygon>
                    <path d="M5.2016,2.4258 C5.1836,1.9918 4.9356,1.7618 4.5976,1.7618 C4.2606,1.7618 4.0066,1.9918 3.9946,2.4258 L5.2016,2.4258 Z M3.9946,2.9008 C3.9946,3.3668 4.2816,3.6058 4.6766,3.6058 C4.8966,3.6058 5.1336,3.5038 5.3036,3.3278 L5.7196,3.6838 C5.4376,4.0098 5.0706,4.1468 4.6876,4.1468 C4.1016,4.1468 3.4206,3.8628 3.4206,2.6918 C3.4206,1.5818 4.0456,1.2208 4.5976,1.2208 C5.2286,1.2208 5.7756,1.6878 5.7756,2.4258 L5.7756,2.9008 L3.9946,2.9008 Z" id="Fill-52"></path>
                    <path d="M6.4634,3.2383 C6.7114,3.4803 6.9834,3.6053 7.3654,3.6053 C7.6924,3.6053 7.9284,3.4803 7.9284,3.2383 C7.9284,3.0353 7.7774,2.9723 7.5804,2.9573 L7.0724,2.9123 C6.5984,2.8713 6.2484,2.5903 6.2484,2.0993 C6.2484,1.5193 6.7114,1.2203 7.3154,1.2203 C7.8174,1.2203 8.1544,1.3733 8.4364,1.6093 L8.0804,2.0253 C7.8564,1.8693 7.6254,1.7613 7.3154,1.7613 C6.9474,1.7613 6.8244,1.9083 6.8244,2.1053 C6.8244,2.2283 6.9144,2.3533 7.2014,2.3753 L7.6764,2.4103 C8.2684,2.4493 8.5044,2.8103 8.5044,3.2653 C8.5044,3.8243 7.9844,4.1463 7.3204,4.1463 C6.8584,4.1463 6.4304,3.9763 6.0634,3.6333 L6.4634,3.2383 Z" id="Fill-53"></path>
                    <path d="M9.1177,0.3867 L9.6917,0.3867 L9.6917,1.2537 L10.1097,1.2537 L10.1097,1.6937 L9.6917,1.6937 L9.6917,3.3577 C9.6917,3.5137 9.7547,3.5707 9.8947,3.5707 L10.1097,3.5707 L10.1097,4.1117 L9.8107,4.1117 C9.4107,4.1117 9.1177,3.8577 9.1177,3.4077 L9.1177,1.6937 L8.8307,1.6937 L8.8307,1.2537 L9.1177,1.2537 L9.1177,0.3867 Z" id="Fill-54"></path>
                    <path d="M10.668,4.111 L11.242,4.111 L11.242,1.254 L10.668,1.254 L10.668,4.111 Z M10.668,0.674 L11.242,0.674 L11.242,0.1 L10.668,0.1 L10.668,0.674 Z" id="Fill-55"></path>
                    <path d="M13.3911,0.3867 L13.9651,0.3867 L13.9651,1.2537 L14.3831,1.2537 L14.3831,1.6937 L13.9651,1.6937 L13.9651,3.3577 C13.9651,3.5137 14.0281,3.5707 14.1681,3.5707 L14.3831,3.5707 L14.3831,4.1117 L14.0841,4.1117 C13.6841,4.1117 13.3911,3.8577 13.3911,3.4077 L13.3911,1.6937 L13.1021,1.6937 L13.1021,1.2537 L13.3911,1.2537 L13.3911,0.3867 Z" id="Fill-56"></path>
                    <path d="M14.9243,1.2539 L15.4983,1.2539 L15.4983,2.9569 C15.4983,3.3459 15.7403,3.5699 16.0673,3.5699 C16.3893,3.5699 16.6313,3.3459 16.6313,2.9569 L16.6313,1.2539 L17.2053,1.2539 L17.2053,4.1109 L16.6313,4.1109 L16.6313,3.8069 L16.6193,3.8069 C16.4403,4.0329 16.1803,4.1469 15.8813,4.1469 C15.4303,4.1469 14.9243,3.8029 14.9243,3.1539 L14.9243,1.2539 Z" id="Fill-57"></path>
                    <path d="M17.9497,0.0996 L18.5237,0.0996 L18.5237,3.3726 C18.5237,3.5036 18.5977,3.5706 18.7387,3.5706 L18.9357,3.5706 L18.9357,4.1116 L18.6817,4.1116 C18.2657,4.1116 17.9497,3.9316 17.9497,3.4176 L17.9497,0.0996 Z" id="Fill-58"></path>
                    <path d="M21.0454,2.4258 C21.0274,1.9918 20.7794,1.7618 20.4414,1.7618 C20.1044,1.7618 19.8504,1.9918 19.8384,2.4258 L21.0454,2.4258 Z M19.8384,2.9008 C19.8384,3.3668 20.1254,3.6058 20.5204,3.6058 C20.7404,3.6058 20.9774,3.5038 21.1474,3.3278 L21.5634,3.6838 C21.2814,4.0098 20.9144,4.1468 20.5314,4.1468 C19.9454,4.1468 19.2644,3.8628 19.2644,2.6918 C19.2644,1.5818 19.8894,1.2208 20.4414,1.2208 C21.0724,1.2208 21.6194,1.6878 21.6194,2.4258 L21.6194,2.9008 L19.8384,2.9008 Z" id="Fill-59"></path>
                    <polygon id="Fill-60" points="21.7837 1.2539 22.3907 1.2539 23.0627 3.2559 23.0727 3.2559 23.7447 1.2539 24.3517 1.2539 23.3047 4.1109 22.8307 4.1109"></polygon>
                    <path d="M24.708,4.111 L25.284,4.111 L25.284,1.254 L24.708,1.254 L24.708,4.111 Z M24.708,0.674 L25.284,0.674 L25.284,0.1 L24.708,0.1 L24.708,0.674 Z" id="Fill-61"></path>
                    <polygon id="Fill-62" points="26.0434 0.0996 26.6174 0.0996 26.6174 2.5956 26.6294 2.5956 27.7294 1.2536 28.4164 1.2536 27.4304 2.3706 28.5514 4.1116 27.8304 4.1116 27.0684 2.7756 26.6174 3.2886 26.6174 4.1116 26.0434 4.1116"></polygon>
                    <path d="M28.9692,1.2539 L29.5432,1.2539 L29.5432,2.9569 C29.5432,3.3459 29.7852,3.5699 30.1142,3.5699 C30.4342,3.5699 30.6762,3.3459 30.6762,2.9569 L30.6762,1.2539 L31.2522,1.2539 L31.2522,4.1109 L30.6762,4.1109 L30.6762,3.8069 L30.6642,3.8069 C30.4852,4.0329 30.2252,4.1469 29.9262,4.1469 C29.4772,4.1469 28.9692,3.8029 28.9692,3.1539 L28.9692,1.2539 Z" id="Fill-63"></path>
                    <path d="M33.3481,0.0996 L33.9221,0.0996 L33.9221,1.5586 L33.9341,1.5586 C34.1161,1.3336 34.3731,1.2206 34.6781,1.2206 C35.1231,1.2206 35.6311,1.5646 35.6311,2.2126 L35.6311,4.1116 L35.0551,4.1116 L35.0551,2.4106 C35.0551,2.0216 34.8131,1.7946 34.4931,1.7946 C34.1661,1.7946 33.9221,2.0216 33.9221,2.4106 L33.9221,4.1116 L33.3481,4.1116 L33.3481,0.0996 Z" id="Fill-64"></path>
                    <path d="M38.0161,2.4258 C37.9981,1.9918 37.7501,1.7618 37.4121,1.7618 C37.0751,1.7618 36.8211,1.9918 36.8091,2.4258 L38.0161,2.4258 Z M36.8091,2.9008 C36.8091,3.3668 37.0961,3.6058 37.4911,3.6058 C37.7111,3.6058 37.9481,3.5038 38.1181,3.3278 L38.5341,3.6838 C38.2521,4.0098 37.8851,4.1468 37.5021,4.1468 C36.9161,4.1468 36.2351,3.8628 36.2351,2.6918 C36.2351,1.5818 36.8601,1.2208 37.4121,1.2208 C38.0431,1.2208 38.5901,1.6878 38.5901,2.4258 L38.5901,2.9008 L36.8091,2.9008 Z" id="Fill-65"></path>
                    <path d="M40.6919,2.9004 L40.0049,2.9004 C39.6669,2.9004 39.5079,3.0354 39.5079,3.2444 C39.5079,3.4354 39.6609,3.6054 40.0489,3.6054 C40.5299,3.6054 40.6919,3.5544 40.6919,3.1094 L40.6919,2.9004 Z M40.6919,3.8574 L40.6799,3.8574 C40.5629,4.0544 40.3659,4.1464 39.9769,4.1464 C39.3399,4.1464 38.9669,3.7674 38.9669,3.2714 C38.9669,2.8164 39.2839,2.4254 39.8969,2.4254 L40.6919,2.4254 L40.6919,2.1274 C40.6919,1.8574 40.5179,1.7614 40.1059,1.7614 C39.8069,1.7614 39.6669,1.8184 39.5649,1.9804 L39.1139,1.6364 C39.3349,1.3344 39.6489,1.2204 40.0789,1.2204 C40.7819,1.2204 41.2679,1.4574 41.2679,2.1624 L41.2679,4.1114 L40.6919,4.1114 L40.6919,3.8574 Z" id="Fill-66"></path>
                    <polygon id="Fill-67" points="42.0122 0.0996 42.5862 0.0996 42.5862 2.5956 42.5982 2.5956 43.6962 1.2536 44.3852 1.2536 43.3972 2.3706 44.5202 4.1116 43.7972 4.1116 43.0372 2.7756 42.5862 3.2886 42.5862 4.1116 42.0122 4.1116"></polygon>
                    <path d="M45.022,3.2383 C45.27,3.4803 45.539,3.6053 45.922,3.6053 C46.251,3.6053 46.487,3.4803 46.487,3.2383 C46.487,3.0353 46.334,2.9723 46.137,2.9573 L45.629,2.9123 C45.157,2.8713 44.807,2.5903 44.807,2.0993 C44.807,1.5193 45.27,1.2203 45.872,1.2203 C46.373,1.2203 46.711,1.3733 46.995,1.6093 L46.639,2.0253 C46.413,1.8693 46.182,1.7613 45.872,1.7613 C45.506,1.7613 45.381,1.9083 45.381,2.1053 C45.381,2.2283 45.471,2.3533 45.76,2.3753 L46.233,2.4103 C46.825,2.4493 47.061,2.8103 47.061,3.2653 C47.061,3.8243 46.543,4.1463 45.877,4.1463 C45.417,4.1463 44.987,3.9763 44.622,3.6333 L45.022,3.2383 Z" id="Fill-68"></path>
                </g>
                <g transform="translate(2.000000, 0.525400)">
                    <path d="M35.4051,10.5763 C35.4091,10.5803 35.4911,10.6363 35.6201,10.7183 C31.6941,5.1173 25.3641,1.1953 17.9441,0.5073 C11.4501,-0.0897 5.3301,1.8963 0.6271,5.6053 C4.1981,6.3143 7.3361,8.1073 9.7251,10.5993 C14.0631,7.8633 19.3051,6.4783 24.8071,6.9863 C28.7051,7.3473 32.2991,8.6233 35.4051,10.5763 Z" id="Fill-69" fill="#0083BA"></path>
                    <path d="M39.813,22.3418 C39.811,22.3518 39.813,22.3618 39.813,22.3728 L39.813,22.3418 Z" id="Fill-70" fill="#FFFFFF"></path>
                    <path d="M39.7955,22.1362 C39.4305,17.9532 37.9495,14.0392 35.6195,10.7192 C35.4905,10.6362 35.4085,10.5802 35.4045,10.5762 C32.2995,8.6232 28.7055,7.3472 24.8075,6.9862 C19.3055,6.4782 14.0635,7.8632 9.7255,10.5992 C12.4085,13.4002 14.1485,17.0802 14.4885,21.1112 C14.5725,22.1152 14.5745,23.1422 14.4795,24.1852 C14.3265,25.8162 13.9555,27.3752 13.3915,28.8282 C12.3715,31.4802 10.7195,33.7972 8.6395,35.6192 C16.6745,30.9532 26.5905,28.9592 36.3635,30.4412 C35.4775,31.2792 34.1455,31.9922 33.0615,32.5542 C34.3815,32.2112 39.0235,30.3572 39.0905,30.2172 C39.0905,30.2132 40.1745,26.7052 39.8345,22.6152 C39.8285,22.5392 39.8015,22.2052 39.7955,22.1362 Z" id="Fill-71" fill="#34394C"></path>
                    <path d="M28.3757,18.2054 C24.2797,17.8264 20.3267,18.4964 16.7897,19.9904 C16.8797,20.9784 16.8867,21.9904 16.7917,23.0154 C16.3307,27.9864 13.6857,32.2224 9.8927,34.8794 C19.7017,29.2384 28.6197,28.4844 36.1727,29.6364 C36.6747,29.7144 38.2267,29.9824 38.9437,30.1734 C39.8227,25.7524 39.5157,22.8264 39.4067,22.0644 C36.3127,19.9704 33.7617,18.7054 28.3757,18.2054 Z" id="Fill-72" fill="#FFFFFF"></path>
                </g>
            </g>
        </g>
    </g>
</svg>