<?xml version="1.0" encoding="UTF-8" standalone="no"?>
<svg width="49px" height="45px" viewBox="0 0 49 45" version="1.1" xmlns="http://www.w3.org/2000/svg" xmlns:xlink="http://www.w3.org/1999/xlink">
    <!-- Generator: sketchtool 41 (35326) - http://www.bohemiancoding.com/sketch -->
    <title>736740A6-AF5B-48A7-B8E2-A87255DE53C2</title>
    <desc>Created with sketchtool.</desc>
    <defs></defs>
    <g id="Page-1" stroke="none" stroke-width="1" fill="none" fill-rule="evenodd">
        <g id="icons" transform="translate(-110.000000, -681.000000)">
            <g id="eu_flag" transform="translate(110.000000, 680.573034)">
                <g id="Logos-/-logo/sf-logo">
                    <polygon id="Fill-2" fill="#034DA1" points="0.936 32.9024 48.735 32.9024 48.735 0.9274 0.936 0.9274"></polygon>
                    <polygon id="Fill-3" fill="#FFE970" points="25.1875 5.584 26.5645 5.584 25.4535 6.418 25.8825 7.738 24.7775 6.928 23.6715 7.738 24.1075 6.418 22.9885 5.584 24.3635 5.584 24.7775 4.297"></polygon>
                    <polygon id="Fill-4" fill="#FFE970" points="25.2461 26.8906 26.6231 26.8906 25.5161 27.7226 25.9431 29.0446 24.8401 28.2306 23.7321 29.0446 24.1701 27.7226 23.0491 26.8906 24.4221 26.8906 24.8401 25.6036"></polygon>
                    <polygon id="Fill-5" fill="#FFE970" points="30.5195 25.4785 31.8985 25.4785 30.7875 26.3105 31.2185 27.6285 30.1135 26.8165 29.0035 27.6285 29.4415 26.3105 28.3225 25.4785 29.6975 25.4785 30.1135 24.1875"></polygon>
                    <polygon id="Fill-6" fill="#FFE970" points="30.5195 6.9883 31.8985 6.9883 30.7875 7.8223 31.2185 9.1383 30.1135 8.3283 29.0035 9.1383 29.4415 7.8223 28.3225 6.9883 29.6975 6.9883 30.1135 5.7013"></polygon>
                    <polygon id="Fill-7" fill="#FFE970" points="34.4355 10.9004 35.8105 10.9004 34.7035 11.7324 35.1345 13.0564 34.0295 12.2424 32.9215 13.0564 33.3575 11.7324 32.2365 10.9004 33.6115 10.9004 34.0295 9.6154"></polygon>
                    <polygon id="Fill-8" fill="#FFE970" points="34.4355 21.6152 35.8105 21.6152 34.7035 22.4472 35.1345 23.7672 34.0295 22.9572 32.9215 23.7672 33.3575 22.4472 32.2365 21.6152 33.6115 21.6152 34.0295 20.3282"></polygon>
                    <polygon id="Fill-9" fill="#FFE970" points="35.9023 16.1777 37.2813 16.1777 36.1723 17.0097 36.5993 18.3317 35.4963 17.5197 34.3903 18.3317 34.8263 17.0097 33.7093 16.1777 35.0803 16.1777 35.4963 14.8887"></polygon>
                    <polygon id="Fill-10" fill="#FFE970" points="19.8066 7.0019 21.1856 7.0019 20.0746 7.8359 20.5056 9.1539 19.4006 8.3399 18.2946 9.1539 18.7306 7.8359 17.6136 7.0019 18.9846 7.0019 19.4006 5.7129"></polygon>
                    <polygon id="Fill-11" fill="#FFE970" points="16 10.916 17.379 10.916 16.268 11.748 16.699 13.068 15.594 12.256 14.488 13.068 14.924 11.748 13.805 10.916 15.178 10.916 15.594 9.631"></polygon>
                    <polygon id="Fill-12" fill="#FFE970" points="14.5879 16.1914 15.9629 16.1914 14.8579 17.0234 15.2869 18.3434 14.1819 17.5314 13.0759 18.3434 13.5099 17.0234 12.3909 16.1914 13.7639 16.1914 14.1819 14.9044"></polygon>
                    <polygon id="Fill-13" fill="#FFE970" points="16 21.6289 17.379 21.6289 16.268 22.4609 16.699 23.7809 15.594 22.9689 14.488 23.7809 14.924 22.4609 13.805 21.6289 15.178 21.6289 15.594 20.3419"></polygon>
                    <polygon id="Fill-14" fill="#FFE970" points="19.8613 25.4902 21.2403 25.4902 20.1293 26.3242 20.5583 27.6422 19.4553 26.8302 18.3473 27.6422 18.7853 26.3242 17.6663 25.4902 19.0393 25.4902 19.4553 24.2012"></polygon>
                    <polygon id="Fill-15" fill="#34394C" points="8.2656 34.9883 10.8296 34.9883 10.8296 35.5623 8.8746 35.5623 8.8746 36.7073 10.5426 36.7073 10.5426 37.2483 8.8746 37.2483 8.8746 38.4253 10.8296 38.4253 10.8296 39.0003 8.2656 39.0003"></polygon>
                </g>
                <g id="Group-73" transform="translate(5.000000, 34.525400)" fill="#34394C">
                    <path d="M6.3496,1.6172 L6.9236,1.6172 L6.9236,3.3202 C6.9236,3.7092 7.1656,3.9332 7.4946,3.9332 C7.8146,3.9332 8.0566,3.7092 8.0566,3.3202 L8.0566,1.6172 L8.6326,1.6172 L8.6326,4.4742 L8.0566,4.4742 L8.0566,4.1702 L8.0446,4.1702 C7.8656,4.3962 7.6056,4.5102 7.3066,4.5102 C6.8576,4.5102 6.3496,4.1662 6.3496,3.5172 L6.3496,1.6172 L6.3496,1.6172 Z" id="Fill-16"></path>
                    <path d="M9.3769,1.6172 L9.9509,1.6172 L9.9509,1.9222 L9.9629,1.9222 C10.1429,1.6972 10.4019,1.5842 10.7069,1.5842 C10.9379,1.5842 11.1289,1.6682 11.3049,1.8032 L10.8869,2.2992 C10.7519,2.1972 10.6559,2.1582 10.5099,2.1582 C10.2269,2.1582 9.9509,2.3402 9.9509,2.7562 L9.9509,4.4742 L9.3769,4.4742 L9.3769,1.6172 Z" id="Fill-18"></path>
                    <path d="M12.9668,2.3672 C12.8808,2.2482 12.7008,2.1582 12.5038,2.1582 C12.3068,2.1582 12.1268,2.2482 12.0408,2.3672 C11.9358,2.5192 11.9008,2.6332 11.9008,3.0432 C11.9008,3.4612 11.9358,3.5742 12.0408,3.7242 C12.1268,3.8442 12.3068,3.9332 12.5038,3.9332 C12.7008,3.9332 12.8808,3.8442 12.9668,3.7242 C13.0738,3.5742 13.1078,3.4612 13.1078,3.0492 C13.1078,2.6332 13.0738,2.5192 12.9668,2.3672 M11.6368,1.9492 C11.7928,1.7752 12.0588,1.5842 12.5038,1.5842 C12.9488,1.5842 13.2148,1.7752 13.3708,1.9492 C13.5918,2.1912 13.6818,2.4292 13.6818,3.0432 C13.6818,3.6642 13.5918,3.9002 13.3708,4.1422 C13.2148,4.3162 12.9488,4.5102 12.5038,4.5102 C12.0588,4.5102 11.7928,4.3162 11.6368,4.1422 C11.4158,3.9002 11.3258,3.6642 11.3258,3.0432 C11.3258,2.4292 11.4158,2.1912 11.6368,1.9492" id="Fill-20"></path>
                    <path d="M15.7851,2.3672 C15.6991,2.2482 15.5191,2.1582 15.3221,2.1582 C15.1251,2.1582 14.9451,2.2482 14.8591,2.3672 C14.7541,2.5192 14.7191,2.6332 14.7191,3.0432 C14.7191,3.4612 14.7541,3.5742 14.8591,3.7242 C14.9451,3.8442 15.1251,3.9332 15.3221,3.9332 C15.5191,3.9332 15.6991,3.8442 15.7851,3.7242 C15.8921,3.5742 15.9261,3.4612 15.9261,3.0492 C15.9261,2.6332 15.8921,2.5192 15.7851,2.3672 M14.4551,1.9492 C14.6111,1.7752 14.8771,1.5842 15.3221,1.5842 C15.7671,1.5842 16.0331,1.7752 16.1891,1.9492 C16.4101,2.1912 16.5001,2.4292 16.5001,3.0432 C16.5001,3.6642 16.4101,3.9002 16.1891,4.1422 C16.0331,4.3162 15.7671,4.5102 15.3221,4.5102 C14.8771,4.5102 14.6111,4.3162 14.4551,4.1422 C14.2341,3.9002 14.1441,3.6642 14.1441,3.0432 C14.1441,2.4292 14.2341,2.1912 14.4551,1.9492" id="Fill-22"></path>
                    <path d="M18.8105,3.0488 C18.8105,2.6038 18.7835,2.1578 18.2425,2.1578 C17.7065,2.1578 17.6775,2.6328 17.6775,3.0488 C17.6775,3.4608 17.7065,3.9338 18.2425,3.9338 C18.7835,3.9338 18.8105,3.4878 18.8105,3.0488 L18.8105,3.0488 Z M17.1035,1.6168 L17.6775,1.6168 L17.6775,1.9158 C17.8595,1.7188 18.1235,1.5838 18.4155,1.5838 C18.7655,1.5838 19.0195,1.7418 19.1835,1.9548 C19.3415,2.1578 19.3865,2.3438 19.3865,3.0488 C19.3865,3.7478 19.3415,3.9338 19.1835,4.1368 C19.0195,4.3518 18.7655,4.5098 18.4155,4.5098 C18.1235,4.5098 17.8925,4.3728 17.6775,4.1698 L17.6775,5.6308 L17.1035,5.6308 L17.1035,1.6168 Z" id="Fill-24"></path>
                    <path d="M21.5273,3.2637 L20.8403,3.2637 C20.5023,3.2637 20.3433,3.3987 20.3433,3.6077 C20.3433,3.7987 20.4963,3.9687 20.8843,3.9687 C21.3653,3.9687 21.5273,3.9177 21.5273,3.4727 L21.5273,3.2637 Z M21.5273,4.2207 L21.5153,4.2207 C21.3983,4.4177 21.2013,4.5097 20.8123,4.5097 C20.1763,4.5097 19.8023,4.1307 19.8023,3.6347 C19.8023,3.1797 20.1193,2.7887 20.7323,2.7887 L21.5273,2.7887 L21.5273,2.4907 C21.5273,2.2207 21.3533,2.1247 20.9413,2.1247 C20.6423,2.1247 20.5023,2.1817 20.4003,2.3437 L19.9493,1.9997 C20.1703,1.6977 20.4843,1.5837 20.9143,1.5837 C21.6173,1.5837 22.1033,1.8207 22.1033,2.5257 L22.1033,4.4747 L21.5273,4.4747 L21.5273,4.2207 Z" id="Fill-26"></path>
                    <polygon id="Fill-28" points="24.25 0.4629 24.859 0.4629 24.859 3.8999 26.814 3.8999 26.814 4.4749 24.25 4.4749"></polygon>
                    <path d="M27.35,4.474 L27.926,4.474 L27.926,1.617 L27.35,1.617 L27.35,4.474 Z M27.35,1.037 L27.926,1.037 L27.926,0.463 L27.35,0.463 L27.35,1.037 Z" id="Fill-30"></path>
                    <path d="M28.703,4.474 L29.277,4.474 L29.277,1.617 L28.703,1.617 L28.703,4.474 Z M28.703,1.037 L29.277,1.037 L29.277,0.463 L28.703,0.463 L28.703,1.037 Z" id="Fill-32"></path>
                    <path d="M30.6133,3.043 C30.6133,3.488 30.6423,3.934 31.1833,3.934 C31.7183,3.934 31.7463,3.461 31.7463,3.043 C31.7463,2.633 31.7183,2.158 31.1833,2.158 C30.6423,2.158 30.6133,2.604 30.6133,3.043 L30.6133,3.043 Z M31.7463,4.176 C31.5663,4.373 31.3013,4.51 31.0083,4.51 C30.6583,4.51 30.4043,4.352 30.2423,4.137 C30.0843,3.934 30.0393,3.748 30.0393,3.043 C30.0393,2.344 30.0843,2.158 30.2423,1.955 C30.4043,1.742 30.6583,1.584 31.0083,1.584 C31.3013,1.584 31.5333,1.719 31.7463,1.922 L31.7463,0.463 L32.3223,0.463 L32.3223,4.475 L31.7463,4.475 L31.7463,4.176 Z" id="Fill-33"></path>
                    <path d="M32.9648,1.6172 L33.5388,1.6172 L33.5388,3.3202 C33.5388,3.7092 33.7808,3.9332 34.1078,3.9332 C34.4298,3.9332 34.6718,3.7092 34.6718,3.3202 L34.6718,1.6172 L35.2458,1.6172 L35.2458,4.4742 L34.6718,4.4742 L34.6718,4.1702 L34.6598,4.1702 C34.4808,4.3962 34.2208,4.5102 33.9218,4.5102 C33.4708,4.5102 32.9648,4.1662 32.9648,3.5172 L32.9648,1.6172 Z" id="Fill-34"></path>
                    <path d="M1.373,9.2383 C1.621,9.4803 1.891,9.6053 2.275,9.6053 C2.602,9.6053 2.838,9.4803 2.838,9.2383 C2.838,9.0353 2.685,8.9723 2.488,8.9573 L1.982,8.9123 C1.508,8.8713 1.158,8.5903 1.158,8.0993 C1.158,7.5193 1.621,7.2203 2.225,7.2203 C2.725,7.2203 3.064,7.3733 3.346,7.6093 L2.99,8.0253 C2.766,7.8693 2.533,7.7613 2.225,7.7613 C1.857,7.7613 1.734,7.9083 1.734,8.1053 C1.734,8.2283 1.824,8.3533 2.111,8.3753 L2.584,8.4103 C3.176,8.4493 3.414,8.8103 3.414,9.2653 C3.414,9.8243 2.894,10.1463 2.23,10.1463 C1.768,10.1463 1.34,9.9763 0.973,9.6333 L1.373,9.2383 Z" id="Fill-35"></path>
                    <path d="M4.0273,6.3867 L4.6033,6.3867 L4.6033,7.2537 L5.0193,7.2537 L5.0193,7.6937 L4.6033,7.6937 L4.6033,9.3577 C4.6033,9.5137 4.6643,9.5707 4.8043,9.5707 L5.0193,9.5707 L5.0193,10.1117 L4.7203,10.1117 C4.3203,10.1117 4.0273,9.8577 4.0273,9.4077 L4.0273,7.6937 L3.7403,7.6937 L3.7403,7.2537 L4.0273,7.2537 L4.0273,6.3867 Z" id="Fill-36"></path>
                    <path d="M5.5605,7.2539 L6.1345,7.2539 L6.1345,7.5589 L6.1465,7.5589 C6.3285,7.3339 6.5855,7.2209 6.8905,7.2209 C7.1215,7.2209 7.3145,7.3049 7.4885,7.4389 L7.0705,7.9359 C6.9355,7.8339 6.8395,7.7949 6.6935,7.7949 C6.4125,7.7949 6.1345,7.9769 6.1345,8.3929 L6.1345,10.1109 L5.5605,10.1109 L5.5605,7.2539 Z" id="Fill-37"></path>
                    <path d="M7.6855,7.2539 L8.2595,7.2539 L8.2595,8.9569 C8.2595,9.3459 8.5015,9.5699 8.8305,9.5699 C9.1505,9.5699 9.3925,9.3459 9.3925,8.9569 L9.3925,7.2539 L9.9685,7.2539 L9.9685,10.1109 L9.3925,10.1109 L9.3925,9.8069 L9.3805,9.8069 C9.2015,10.0329 8.9415,10.1469 8.6425,10.1469 C8.1935,10.1469 7.6855,9.8029 7.6855,9.1539 L7.6855,7.2539 Z" id="Fill-38"></path>
                    <polygon id="Fill-39" points="10.7129 6.0996 11.2869 6.0996 11.2869 8.5956 11.2989 8.5956 12.3969 7.2536 13.0859 7.2536 12.0979 8.3706 13.2209 10.1116 12.4979 10.1116 11.7379 8.7756 11.2869 9.2886 11.2869 10.1116 10.7129 10.1116"></polygon>
                    <path d="M13.6719,6.3867 L14.2459,6.3867 L14.2459,7.2537 L14.6639,7.2537 L14.6639,7.6937 L14.2459,7.6937 L14.2459,9.3577 C14.2459,9.5137 14.3089,9.5707 14.4489,9.5707 L14.6639,9.5707 L14.6639,10.1117 L14.3649,10.1117 C13.9649,10.1117 13.6719,9.8577 13.6719,9.4077 L13.6719,7.6937 L13.3829,7.6937 L13.3829,7.2537 L13.6719,7.2537 L13.6719,6.3867 Z" id="Fill-40"></path>
                    <path d="M15.2051,7.2539 L15.7791,7.2539 L15.7791,8.9569 C15.7791,9.3459 16.0211,9.5699 16.3481,9.5699 C16.6701,9.5699 16.9121,9.3459 16.9121,8.9569 L16.9121,7.2539 L17.4861,7.2539 L17.4861,10.1109 L16.9121,10.1109 L16.9121,9.8069 L16.9001,9.8069 C16.7211,10.0329 16.4611,10.1469 16.1621,10.1469 C15.7111,10.1469 15.2051,9.8029 15.2051,9.1539 L15.2051,7.2539 Z" id="Fill-41"></path>
                    <path d="M18.2305,7.2539 L18.8065,7.2539 L18.8065,8.9569 C18.8065,9.3459 19.0485,9.5699 19.3755,9.5699 C19.6975,9.5699 19.9395,9.3459 19.9395,8.9569 L19.9395,7.2539 L20.5135,7.2539 L20.5135,10.1109 L19.9395,10.1109 L19.9395,9.8069 L19.9275,9.8069 C19.7485,10.0329 19.4885,10.1469 19.1895,10.1469 C18.7385,10.1469 18.2305,9.8029 18.2305,9.1539 L18.2305,7.2539 Z" id="Fill-42"></path>
                    <path d="M21.2578,7.2539 L21.8318,7.2539 L21.8318,7.5589 L21.8438,7.5589 C22.0238,7.3339 22.2828,7.2209 22.5878,7.2209 C22.8178,7.2209 23.0098,7.3049 23.1858,7.4389 L22.7678,7.9359 C22.6328,7.8339 22.5368,7.7949 22.3908,7.7949 C22.1098,7.7949 21.8318,7.9769 21.8318,8.3929 L21.8318,10.1109 L21.2578,10.1109 L21.2578,7.2539 Z" id="Fill-43"></path>
                    <path d="M23.467,10.111 L24.041,10.111 L24.041,7.254 L23.467,7.254 L23.467,10.111 Z M23.467,6.674 L24.041,6.674 L24.041,6.1 L23.467,6.1 L23.467,6.674 Z" id="Fill-44"></path>
                    <path d="M24.8359,6.3867 L25.4119,6.3867 L25.4119,7.2537 L25.8279,7.2537 L25.8279,7.6937 L25.4119,7.6937 L25.4119,9.3577 C25.4119,9.5137 25.4729,9.5707 25.6149,9.5707 L25.8279,9.5707 L25.8279,10.1117 L25.5289,10.1117 C25.1289,10.1117 24.8359,9.8577 24.8359,9.4077 L24.8359,7.6937 L24.5489,7.6937 L24.5489,7.2537 L24.8359,7.2537 L24.8359,6.3867 Z" id="Fill-45"></path>
                    <path d="M27.8691,8.0039 C27.7851,7.8849 27.6031,7.7949 27.4061,7.7949 C27.2091,7.7949 27.0291,7.8849 26.9451,8.0039 C26.8381,8.1559 26.8051,8.2699 26.8051,8.6799 C26.8051,9.0979 26.8381,9.2109 26.9451,9.3609 C27.0291,9.4809 27.2091,9.5699 27.4061,9.5699 C27.6031,9.5699 27.7851,9.4809 27.8691,9.3609 C27.9761,9.2109 28.0101,9.0979 28.0101,8.6859 C28.0101,8.2699 27.9761,8.1559 27.8691,8.0039 M26.5391,7.5859 C26.6971,7.4119 26.9611,7.2209 27.4061,7.2209 C27.8511,7.2209 28.1171,7.4119 28.2751,7.5859 C28.4941,7.8279 28.5841,8.0659 28.5841,8.6799 C28.5841,9.3009 28.4941,9.5369 28.2751,9.7789 C28.1171,9.9529 27.8511,10.1469 27.4061,10.1469 C26.9611,10.1469 26.6971,9.9529 26.5391,9.7789 C26.3181,9.5369 26.2281,9.3009 26.2281,8.6799 C26.2281,8.0659 26.3181,7.8279 26.5391,7.5859" id="Fill-46"></path>
                    <path d="M30.8281,8.4258 C30.8101,7.9918 30.5621,7.7618 30.2241,7.7618 C29.8871,7.7618 29.6331,7.9918 29.6211,8.4258 L30.8281,8.4258 Z M29.6211,8.9008 C29.6211,9.3668 29.9081,9.6058 30.3031,9.6058 C30.5231,9.6058 30.7601,9.5038 30.9301,9.3278 L31.3461,9.6838 C31.0641,10.0098 30.6971,10.1468 30.3141,10.1468 C29.7281,10.1468 29.0471,9.8628 29.0471,8.6918 C29.0471,7.5818 29.6721,7.2208 30.2241,7.2208 C30.8551,7.2208 31.4021,7.6878 31.4021,8.4258 L31.4021,8.9008 L29.6211,8.9008 Z" id="Fill-47"></path>
                    <path d="M32.039,6.3867 L32.615,6.3867 L32.615,7.2537 L33.031,7.2537 L33.031,7.6937 L32.615,7.6937 L32.615,9.3577 C32.615,9.5137 32.676,9.5707 32.818,9.5707 L33.031,9.5707 L33.031,10.1117 L32.732,10.1117 C32.332,10.1117 32.039,9.8577 32.039,9.4077 L32.039,7.6937 L31.752,7.6937 L31.752,7.2537 L32.039,7.2537 L32.039,6.3867 Z" id="Fill-48"></path>
                    <path d="M33.5722,7.2539 L34.1482,7.2539 L34.1482,8.9569 C34.1482,9.3459 34.3902,9.5699 34.7172,9.5699 C35.0392,9.5699 35.2812,9.3459 35.2812,8.9569 L35.2812,7.2539 L35.8552,7.2539 L35.8552,10.1109 L35.2812,10.1109 L35.2812,9.8069 L35.2692,9.8069 C35.0902,10.0329 34.8302,10.1469 34.5312,10.1469 C34.0802,10.1469 33.5722,9.8029 33.5722,9.1539 L33.5722,7.2539 Z" id="Fill-49"></path>
                    <path d="M36.6836,9.2383 C36.9316,9.4803 37.2036,9.6053 37.5856,9.6053 C37.9126,9.6053 38.1486,9.4803 38.1486,9.2383 C38.1486,9.0353 37.9976,8.9723 37.8006,8.9573 L37.2926,8.9123 C36.8186,8.8713 36.4686,8.5903 36.4686,8.0993 C36.4686,7.5193 36.9316,7.2203 37.5356,7.2203 C38.0376,7.2203 38.3746,7.3733 38.6566,7.6093 L38.3006,8.0253 C38.0766,7.8693 37.8456,7.7613 37.5356,7.7613 C37.1676,7.7613 37.0446,7.9083 37.0446,8.1053 C37.0446,8.2283 37.1346,8.3533 37.4216,8.3753 L37.8966,8.4103 C38.4886,8.4493 38.7246,8.8103 38.7246,9.2653 C38.7246,9.8243 38.2046,10.1463 37.5406,10.1463 C37.0786,10.1463 36.6506,9.9763 36.2836,9.6333 L36.6836,9.2383 Z" id="Fill-50"></path>
                </g>
            </g>
        </g>
    </g>
</svg>