<?xml version="1.0" encoding="UTF-8" standalone="no"?>
<svg
   xmlns:dc="http://purl.org/dc/elements/1.1/"
   xmlns:cc="http://creativecommons.org/ns#"
   xmlns:rdf="http://www.w3.org/1999/02/22-rdf-syntax-ns#"
   xmlns:svg="http://www.w3.org/2000/svg"
   xmlns="http://www.w3.org/2000/svg"
   viewBox="0 0 134.66667 164"
   height="164"
   width="134.66667"
   xml:space="preserve"
   id="svg2"
   version="1.1"><metadata
     id="metadata8"><rdf:RDF><cc:Work
         rdf:about=""><dc:format>image/svg+xml</dc:format><dc:type
           rdf:resource="http://purl.org/dc/dcmitype/StillImage" /></cc:Work></rdf:RDF></metadata><defs
     id="defs6"><clipPath
       id="clipPath18"
       clipPathUnits="userSpaceOnUse"><path
         id="path16"
         d="M 0,123 H 101 V 0 H 0 Z" /></clipPath><clipPath
       id="clipPath30"
       clipPathUnits="userSpaceOnUse"><path
         id="path28"
         d="m 46.086,92.236 c -1.658,-1.442 -2.916,-3.407 -3.5,-5.586 v 0 C 41.328,86.496 40.1,86.066 39.087,85.33 v 0 c -1.013,-0.706 -1.842,-1.627 -2.426,-2.702 v 0 C 34.297,82.075 32.21,80.755 30.676,78.975 v 0 c -1.72,-1.966 -2.733,-4.544 -2.733,-7.368 v 0 c 0,-1.014 0.122,-1.996 0.368,-2.917 v 0 c 0.123,-0.43 0.276,-0.828 0.431,-1.258 v 0 c -1.504,-0.983 -2.826,-2.304 -3.808,-3.838 v 0 C 23.706,61.66 23,59.359 23,56.902 v 0 c 0,-3.408 1.351,-6.539 3.592,-8.811 v 0 l 0.061,-0.061 c 2.303,-2.272 5.434,-3.716 8.903,-3.716 v 0 c 1.105,0 2.21,0.155 3.224,0.431 v 0 c 2.425,-0.338 4.727,-1.32 6.907,-2.886 v 0 c 1.75,-1.32 3.469,-3.038 5.096,-5.219 v 0 -7.123 H 34.636 c -0.891,0 -1.628,-0.704 -1.628,-1.626 v 0 c 0,-0.922 0.737,-1.627 1.628,-1.627 v 0 h 37.729 c 0.89,0 1.658,0.705 1.658,1.627 v 0 c 0,0.922 -0.768,1.626 -1.658,1.626 v 0 H 56.217 v 7.123 c 1.595,2.181 3.315,3.899 5.127,5.219 v 0 c 2.149,1.566 4.45,2.548 6.907,2.886 v 0 c 1.044,-0.276 2.088,-0.431 3.194,-0.431 v 0 c 3.437,0 6.599,1.444 8.871,3.716 v 0 C 82.588,50.301 84,53.433 84,56.902 v 0 c 0,2.364 -0.674,4.605 -1.842,6.539 v 0 l -0.092,0.123 c -0.952,1.504 -2.24,2.824 -3.744,3.837 v 0 c 0.183,0.399 0.336,0.829 0.46,1.259 v 0 c 0.245,0.951 0.368,1.965 0.368,2.947 v 0 c 0,2.702 -0.952,5.219 -2.549,7.153 v 0 c -1.32,1.627 -3.1,2.886 -5.156,3.561 v 0 c -0.093,1.903 -0.891,3.592 -2.15,4.881 v 0 l -0.061,0.092 c -1.382,1.382 -3.285,2.242 -5.404,2.242 v 0 l -0.645,-0.031 c -0.89,1.473 -2.088,2.763 -3.591,3.713 v 0 C 57.844,94.325 55.756,95 53.515,95 v 0 c -2.855,0 -5.464,-1.044 -7.429,-2.764 m -0.522,-7.367 c 0.276,1.933 1.259,3.653 2.671,4.911 v 0 c 1.382,1.198 3.254,1.966 5.28,1.966 v 0 c 1.597,0 3.07,-0.461 4.329,-1.29 v 0 c 1.289,-0.828 2.302,-2.026 2.947,-3.438 v 0 c 0.338,-0.767 1.229,-1.136 1.965,-0.89 v 0 c 1.473,0.368 3.101,-0.062 4.174,-1.136 v 0 l 0.062,-0.061 c 0.737,-0.799 1.197,-1.873 1.197,-3.04 v 0 c 0,-0.245 0,-0.43 -0.03,-0.583 v 0 c -0.123,-0.861 0.461,-1.658 1.29,-1.811 v 0 c 1.841,-0.369 3.468,-1.412 4.635,-2.794 v 0 c 1.106,-1.381 1.782,-3.162 1.782,-5.096 v 0 c 0,-0.737 -0.063,-1.443 -0.278,-2.088 v 0 C 75.435,68.813 75.159,68.138 74.79,67.555 v 0 c -0.46,-0.768 -0.185,-1.781 0.583,-2.241 v 0 l 0.124,-0.032 c 1.566,-0.797 2.885,-1.995 3.806,-3.438 v 0 l 0.091,-0.153 c 0.829,-1.381 1.352,-3.009 1.352,-4.789 v 0 c 0,-2.579 -1.044,-4.88 -2.732,-6.57 v 0 c -1.689,-1.688 -4.021,-2.733 -6.569,-2.733 v 0 c -1.505,0 -2.979,0.339 -4.299,1.045 v 0 C 65.794,49.35 64.66,50.363 63.8,51.591 v 0 c -0.522,0.737 -1.535,0.92 -2.271,0.399 v 0 c -0.155,-0.123 -0.308,-0.246 -0.432,-0.399 v 0 C 60.269,50.363 59.133,49.35 57.812,48.644 v 0 L 57.689,48.582 C 56.463,47.968 55.02,47.599 53.515,47.599 v 0 c -1.596,0 -3.038,0.4 -4.298,1.045 v 0 c -1.35,0.706 -2.517,1.719 -3.346,2.947 v 0 c -0.522,0.737 -1.535,0.92 -2.272,0.399 v 0 C 43.415,51.867 43.292,51.744 43.2,51.591 v 0 c -1.165,-1.719 -2.947,-2.978 -4.912,-3.592 v 0 l -0.152,-0.031 -0.032,-0.03 c -0.829,-0.215 -1.658,-0.339 -2.548,-0.339 v 0 c -2.548,0 -4.88,1.045 -6.571,2.733 v 0 l -0.06,0.091 c -1.627,1.659 -2.64,3.931 -2.64,6.479 v 0 c 0,1.811 0.522,3.53 1.412,4.942 v 0 c 0.921,1.505 2.272,2.702 3.899,3.438 v 0 c 0.798,0.4 1.136,1.382 0.737,2.181 v 0 l -0.091,0.213 c -0.339,0.554 -0.584,1.199 -0.738,1.843 v 0 c -0.215,0.676 -0.277,1.351 -0.277,2.088 v 0 c 0,1.995 0.707,3.836 1.935,5.25 v 0 c 1.197,1.412 2.947,2.425 4.881,2.701 v 0 c 0.644,0.092 1.105,0.522 1.32,1.105 v 0 c 0.307,0.798 0.859,1.505 1.566,1.997 v 0 c 0.859,0.582 1.872,0.828 2.885,0.736 v 0 c 0.038,-0.003 0.076,-0.004 0.113,-0.004 v 0 c 0.842,0 1.549,0.654 1.637,1.477 M 56.217,44.622 c 1.044,0.247 2.026,0.583 2.947,1.075 v 0 l 0.154,0.061 c 1.166,0.614 2.211,1.412 3.131,2.333 v 0 c 0.429,-0.43 0.89,-0.798 1.351,-1.166 v 0 C 62.295,46.31 60.822,45.512 59.44,44.499 v 0 c -1.105,-0.798 -2.179,-1.75 -3.223,-2.793 v 0 z M 47.59,44.499 c -1.412,1.013 -2.885,1.811 -4.39,2.426 v 0 c 0.491,0.368 0.921,0.736 1.351,1.166 v 0 c 0.89,-0.921 1.965,-1.719 3.131,-2.333 v 0 c 0.952,-0.492 1.996,-0.889 3.101,-1.136 v 0 -2.916 c -1.044,1.043 -2.118,1.995 -3.193,2.793" /></clipPath><clipPath
       id="clipPath40"
       clipPathUnits="userSpaceOnUse"><path
         id="path38"
         d="m 46.086,92.237 c -1.657,-1.443 -2.915,-3.408 -3.499,-5.586 v 0 C 41.329,86.497 40.101,86.065 39.088,85.33 v 0 c -1.015,-0.705 -1.844,-1.627 -2.427,-2.701 v 0 c -2.363,-0.555 -4.45,-1.874 -5.986,-3.653 v 0 c -1.72,-1.967 -2.731,-4.545 -2.731,-7.369 v 0 c 0,-1.013 0.122,-1.996 0.367,-2.918 v 0 c 0.123,-0.428 0.275,-0.827 0.431,-1.256 v 0 c -1.505,-0.985 -2.826,-2.304 -3.807,-3.84 v 0 C 23.705,61.66 23,59.358 23,56.903 v 0 c 0,-3.408 1.352,-6.541 3.592,-8.812 v 0 l 0.061,-0.061 c 2.302,-2.273 5.434,-3.716 8.903,-3.716 v 0 c 1.105,0 2.209,0.154 3.224,0.432 v 0 c 2.425,-0.339 4.727,-1.321 6.907,-2.887 v 0 c 1.751,-1.32 3.469,-3.038 5.096,-5.22 v 0 -7.122 H 34.636 c -0.891,0 -1.627,-0.705 -1.627,-1.627 v 0 c 0,-0.92 0.736,-1.627 1.627,-1.627 v 0 h 37.73 c 0.889,0 1.657,0.707 1.657,1.627 v 0 c 0,0.922 -0.768,1.627 -1.657,1.627 v 0 H 56.217 v 7.122 c 1.595,2.182 3.315,3.9 5.126,5.22 v 0 c 2.15,1.566 4.452,2.548 6.908,2.887 v 0 c 1.043,-0.278 2.088,-0.432 3.195,-0.432 v 0 c 3.436,0 6.597,1.443 8.87,3.716 v 0 C 82.588,50.301 84,53.434 84,56.903 v 0 c 0,2.362 -0.675,4.603 -1.842,6.538 v 0 l -0.091,0.124 c -0.952,1.503 -2.241,2.822 -3.745,3.835 v 0 c 0.183,0.399 0.337,0.829 0.46,1.26 v 0 c 0.246,0.951 0.367,1.964 0.367,2.947 v 0 c 0,2.702 -0.95,5.219 -2.549,7.152 v 0 c -1.319,1.629 -3.1,2.887 -5.154,3.562 v 0 c -0.094,1.903 -0.892,3.592 -2.152,4.881 v 0 l -0.059,0.091 c -1.384,1.384 -3.286,2.243 -5.406,2.243 v 0 l -0.644,-0.03 c -0.889,1.473 -2.087,2.761 -3.592,3.712 v 0 c -1.749,1.106 -3.838,1.783 -6.079,1.783 v 0 c -2.855,0 -5.462,-1.044 -7.428,-2.764 M 45.564,84.87 c 0.275,1.933 1.26,3.653 2.67,4.911 v 0 c 1.384,1.198 3.254,1.966 5.28,1.966 v 0 c 1.599,0 3.07,-0.462 4.33,-1.291 v 0 c 1.289,-0.827 2.302,-2.026 2.948,-3.438 v 0 c 0.337,-0.768 1.228,-1.137 1.964,-0.89 v 0 c 1.473,0.369 3.101,-0.063 4.174,-1.137 v 0 l 0.062,-0.06 c 0.736,-0.799 1.198,-1.873 1.198,-3.04 v 0 c 0,-0.245 0,-0.431 -0.031,-0.583 v 0 c -0.123,-0.861 0.462,-1.658 1.289,-1.812 v 0 c 1.842,-0.368 3.469,-1.412 4.636,-2.792 v 0 c 1.106,-1.382 1.781,-3.163 1.781,-5.097 v 0 c 0,-0.736 -0.063,-1.443 -0.276,-2.087 v 0 C 75.435,68.813 75.16,68.138 74.791,67.554 v 0 c -0.46,-0.768 -0.186,-1.781 0.582,-2.241 v 0 l 0.123,-0.03 c 1.566,-0.798 2.885,-1.996 3.807,-3.44 v 0 l 0.091,-0.152 c 0.829,-1.38 1.352,-3.009 1.352,-4.788 v 0 c 0,-2.58 -1.044,-4.881 -2.732,-6.571 v 0 c -1.689,-1.688 -4.021,-2.733 -6.568,-2.733 v 0 c -1.506,0 -2.981,0.338 -4.3,1.045 v 0 c -1.351,0.705 -2.486,1.718 -3.345,2.946 v 0 c -0.523,0.738 -1.536,0.922 -2.273,0.401 v 0 C 61.374,51.868 61.22,51.744 61.098,51.59 v 0 c -0.829,-1.228 -1.965,-2.241 -3.286,-2.946 v 0 L 57.688,48.581 C 56.464,47.967 55.02,47.599 53.514,47.599 v 0 c -1.594,0 -3.037,0.401 -4.297,1.045 v 0 c -1.35,0.705 -2.517,1.718 -3.346,2.946 v 0 c -0.522,0.738 -1.535,0.922 -2.273,0.401 v 0 C 43.416,51.868 43.292,51.744 43.199,51.59 v 0 C 42.034,49.872 40.253,48.614 38.288,48 v 0 l -0.152,-0.033 -0.033,-0.03 c -0.828,-0.215 -1.657,-0.338 -2.547,-0.338 v 0 c -2.547,0 -4.881,1.045 -6.57,2.733 v 0 l -0.061,0.091 c -1.627,1.659 -2.64,3.931 -2.64,6.48 v 0 c 0,1.811 0.522,3.529 1.412,4.94 v 0 c 0.922,1.507 2.271,2.702 3.9,3.44 v 0 c 0.797,0.399 1.135,1.382 0.736,2.18 v 0 l -0.092,0.213 c -0.338,0.553 -0.583,1.199 -0.737,1.844 v 0 c -0.215,0.674 -0.277,1.351 -0.277,2.087 v 0 c 0,1.995 0.707,3.837 1.934,5.251 v 0 c 1.198,1.411 2.948,2.424 4.881,2.699 v 0 c 0.645,0.093 1.107,0.523 1.321,1.106 v 0 c 0.306,0.797 0.86,1.506 1.567,1.996 v 0 c 0.859,0.584 1.872,0.829 2.883,0.738 v 0 c 0.039,-0.004 0.077,-0.006 0.115,-0.006 v 0 c 0.841,0 1.548,0.655 1.636,1.479 M 56.217,44.622 c 1.044,0.247 2.026,0.584 2.948,1.076 v 0 l 0.154,0.059 c 1.165,0.616 2.209,1.412 3.13,2.334 v 0 c 0.43,-0.43 0.89,-0.798 1.352,-1.165 v 0 C 62.296,46.31 60.822,45.512 59.439,44.499 v 0 C 58.335,43.702 57.261,42.75 56.217,41.706 v 0 z M 47.59,44.499 c -1.412,1.013 -2.886,1.811 -4.391,2.427 v 0 c 0.492,0.367 0.922,0.735 1.352,1.165 v 0 c 0.889,-0.922 1.965,-1.718 3.132,-2.334 v 0 c 0.952,-0.491 1.996,-0.888 3.1,-1.135 v 0 -2.916 c -1.044,1.044 -2.118,1.996 -3.193,2.793" /></clipPath></defs><g
     transform="matrix(1.3333333,0,0,-1.3333333,0,164)"
     id="g10"><g
       id="g12"><g
         clip-path="url(#clipPath18)"
         id="g14"><g
           transform="translate(61.3438,41.8594)"
           id="g20"><path
             id="path22"
             style="fill:#ffffff;fill-opacity:1;fill-rule:evenodd;stroke:none"
             d="m 0,0 c 2.149,1.565 4.451,2.548 6.907,2.886 1.044,-0.277 2.088,-0.431 3.194,-0.431 3.437,0 6.599,1.443 8.872,3.716 2.271,2.27 3.683,5.402 3.683,8.872 0,2.363 -0.675,4.604 -1.842,6.539 l -0.091,0.123 c -0.952,1.503 -2.242,2.823 -3.745,3.837 0.183,0.398 0.336,0.829 0.459,1.259 0.247,0.95 0.369,1.965 0.369,2.947 0,2.702 -0.952,5.219 -2.549,7.152 -1.319,1.627 -3.1,2.887 -5.156,3.561 -0.093,1.904 -0.891,3.593 -2.15,4.882 l -0.06,0.092 c -1.383,1.381 -3.286,2.241 -5.405,2.241 l -0.644,-0.03 c -0.891,1.473 -2.088,2.763 -3.592,3.713 -1.75,1.106 -3.838,1.782 -6.079,1.782 -2.855,0 -5.463,-1.044 -7.429,-2.764 -1.658,-1.442 -2.916,-3.407 -3.5,-5.586 -1.258,-0.154 -2.486,-0.584 -3.499,-1.32 -1.014,-0.706 -1.842,-1.627 -2.426,-2.702 -2.364,-0.554 -4.451,-1.873 -5.985,-3.653 -1.72,-1.966 -2.733,-4.544 -2.733,-7.368 0,-1.014 0.122,-1.997 0.368,-2.917 0.123,-0.43 0.276,-0.829 0.43,-1.258 -1.503,-0.984 -2.825,-2.303 -3.807,-3.839 -1.228,-1.933 -1.934,-4.235 -1.934,-6.691 0,-3.408 1.351,-6.539 3.593,-8.812 l 0.06,-0.06 c 2.303,-2.273 5.434,-3.716 8.903,-3.716 1.105,0 2.21,0.154 3.225,0.431 2.424,-0.338 4.726,-1.321 6.906,-2.886 1.75,-1.32 3.469,-3.039 5.096,-5.22 v -7.122 h -16.147 c -0.891,0 -1.627,-0.705 -1.627,-1.627 0,-0.921 0.736,-1.627 1.627,-1.627 h 37.729 c 0.89,0 1.659,0.706 1.659,1.627 0,0.922 -0.769,1.627 -1.659,1.627 H -5.127 V -5.22 C -3.531,-3.039 -1.812,-1.32 0,0 M -1.904,2.64 C -3.009,1.842 -4.083,0.89 -5.127,-0.153 v 2.916 c 1.044,0.246 2.026,0.583 2.947,1.075 l 0.155,0.06 c 1.166,0.615 2.21,1.413 3.13,2.333 C 1.535,5.802 1.995,5.434 2.456,5.065 0.951,4.451 -0.521,3.652 -1.904,2.64 m -8.657,-2.793 c -1.043,1.043 -2.118,1.995 -3.193,2.793 -1.412,1.012 -2.885,1.811 -4.39,2.425 0.491,0.369 0.921,0.737 1.352,1.166 0.889,-0.92 1.964,-1.718 3.13,-2.333 0.953,-0.491 1.996,-0.889 3.101,-1.135 z m 2.732,5.893 c -1.596,0 -3.039,0.4 -4.297,1.045 -1.351,0.705 -2.518,1.719 -3.347,2.946 -0.522,0.738 -1.535,0.921 -2.272,0.4 -0.184,-0.123 -0.307,-0.246 -0.399,-0.4 -1.166,-1.718 -2.947,-2.977 -4.912,-3.591 l -0.152,-0.032 -0.032,-0.03 c -0.829,-0.215 -1.657,-0.338 -2.548,-0.338 -2.547,0 -4.88,1.045 -6.57,2.733 l -0.06,0.091 c -1.628,1.659 -2.641,3.93 -2.641,6.479 0,1.811 0.522,3.53 1.413,4.941 0.92,1.506 2.271,2.703 3.898,3.439 0.798,0.4 1.136,1.382 0.737,2.181 l -0.092,0.213 c -0.338,0.554 -0.584,1.199 -0.737,1.843 -0.215,0.675 -0.277,1.351 -0.277,2.088 0,1.995 0.707,3.836 1.935,5.25 1.197,1.412 2.947,2.424 4.881,2.701 0.644,0.092 1.105,0.522 1.321,1.105 0.306,0.798 0.858,1.505 1.565,1.996 0.859,0.582 1.873,0.828 2.885,0.737 0.891,-0.062 1.658,0.613 1.75,1.473 0.276,1.933 1.259,3.653 2.671,4.911 1.382,1.198 3.255,1.966 5.28,1.966 1.598,0 3.07,-0.461 4.329,-1.29 1.289,-0.828 2.303,-2.026 2.947,-3.438 0.338,-0.767 1.229,-1.137 1.965,-0.89 1.473,0.368 3.102,-0.062 4.175,-1.137 l 0.061,-0.06 c 0.737,-0.8 1.198,-1.873 1.198,-3.04 0,-0.245 0,-0.43 -0.031,-0.583 -0.123,-0.861 0.461,-1.658 1.289,-1.811 1.842,-0.369 3.469,-1.412 4.636,-2.794 1.106,-1.382 1.781,-3.162 1.781,-5.096 0,-0.737 -0.062,-1.443 -0.277,-2.088 -0.152,-0.706 -0.429,-1.382 -0.798,-1.964 -0.46,-0.768 -0.184,-1.781 0.583,-2.241 l 0.123,-0.032 c 1.567,-0.798 2.886,-1.995 3.807,-3.439 l 0.092,-0.152 c 0.829,-1.381 1.351,-3.01 1.351,-4.789 0,-2.579 -1.044,-4.881 -2.732,-6.57 C 14.981,6.785 12.648,5.74 10.101,5.74 8.596,5.74 7.122,6.078 5.803,6.785 4.451,7.49 3.315,8.504 2.456,9.731 1.935,10.469 0.921,10.652 0.185,10.131 0.03,10.008 -0.123,9.885 -0.246,9.731 -1.074,8.504 -2.211,7.49 -3.531,6.785 L -3.654,6.723 C -4.881,6.108 -6.324,5.74 -7.829,5.74" /></g></g></g><g
       id="g24"><g
         clip-path="url(#clipPath30)"
         id="g26"><path
           id="path32"
           style="fill:#ffffff;fill-opacity:1;fill-rule:nonzero;stroke:none"
           d="M -1302,-1342 H 3612 V 7132 H -1302 Z" /></g></g><g
       id="g34"><g
         clip-path="url(#clipPath40)"
         id="g36"><path
           id="path42"
           style="fill:#ffffff;fill-opacity:1;fill-rule:nonzero;stroke:none"
           d="M 18,100 H 89 V 21.264 H 18 Z" /></g></g></g></svg>